<?xml version="1.0" encoding="utf-8"?>
<!-- Generator: Adobe Illustrator 24.1.2, SVG Export Plug-In . SVG Version: 6.00 Build 0)  -->
<svg version="1.1" xmlns="http://www.w3.org/2000/svg" xmlns:xlink="http://www.w3.org/1999/xlink" x="0px" y="0px"
	 viewBox="0 0 1920 1080" style="enable-background:new 0 0 1920 1080;" xml:space="preserve">
<style type="text/css">
	.st0{stroke:#000000;stroke-miterlimit:10;}
	.st1{fill:#F7931E;}
	.st2{fill:#FBB03B;}
	.st3{fill:none;}
	.st4{font-family:'OCRAExtended';}
	.st5{font-size:100px;}
</style>
<g id="Layer_1">
	<path class="st0" d="M794.31,587.65c-2.41,11.16-18.11,11.52-21.14,0.5C755.97,525.43,788.9,216.8,917.62,221.1
		c128.81,4.3,159.9,289.03,147.94,364.24c-1.83,11.49-18.71,11.35-21.23-0.01c-15.1-67.94-62.1-259.83-125.94-259.83
		C853.8,325.5,808.59,521.62,794.31,587.65z"/>
	<path class="st1" d="M912.63,343.35l-20.9-27.41c-3.52-4.61-0.73-11.94,4.53-11.94h41.8c5.27,0,8.05,7.33,4.53,11.94l-20.9,27.41
		C919.28,346.53,915.05,346.53,912.63,343.35z"/>
	<path class="st2" d="M841.5,600c0,0,23-21,49,0"/>
	<path class="st2" d="M944.24,600.15c0,0,23-21,49,0"/>
	<rect x="413.39" y="623.58" class="st3" width="1234.06" height="318.97"/>
	<text transform="matrix(1 0 0 1 413.3872 688.4795)" class="st4 st5">Giggling Penguin </text>
</g>
<g id="Layer_2">
</g>
</svg>
